<svg width="25" height="25" viewBox="0 0 25 25" fill="none" xmlns="http://www.w3.org/2000/svg">
<g clip-path="url(#clip0_966_34612)">
<g clip-path="url(#clip1_966_34612)">
<g clip-path="url(#clip2_966_34612)">
<mask id="mask0_966_34612" style="mask-type:luminance" maskUnits="userSpaceOnUse" x="0" y="5" width="25" height="16">
<path d="M0.667969 5.00195H24.668V20.199H0.667969V5.00195Z" fill="white"/>
</mask>
<g mask="url(#mask0_966_34612)">
<path d="M10.3554 11.7955C10.3554 11.7955 12.6264 11.6275 12.6264 8.96445C12.6264 6.30145 10.7684 5.00195 8.41488 5.00195H0.671875V19.883H8.41587C8.41587 19.883 13.1429 20.033 13.1429 15.491C13.1429 15.491 13.3489 11.796 10.3559 11.796L10.3554 11.7955ZM7.85787 7.64695H8.41488C8.41488 7.64695 9.46788 7.64695 9.46788 9.19495C9.46788 10.7435 8.84888 10.968 8.14638 10.968H4.08337V7.64695H7.85787ZM8.19637 17.2385H4.08337V13.2615H8.41488C8.41488 13.2615 9.98388 13.241 9.98388 15.305C9.98388 17.046 8.81238 17.225 8.19637 17.2385ZM19.4469 8.78845C13.7244 8.78795 13.7294 14.5055 13.7294 14.5055C13.7294 14.5055 13.3364 20.194 19.4469 20.194C19.4469 20.194 24.5389 20.485 24.5389 16.237H21.9204C21.9204 16.237 22.0079 17.837 19.5344 17.837C19.5344 17.837 16.9154 18.012 16.9154 15.2475H24.6264C24.6264 15.2475 25.4704 8.78745 19.4469 8.78745V8.78845ZM16.8869 13.2615C16.8869 13.2615 17.2064 10.968 19.5054 10.968C21.8039 10.968 21.7754 13.2615 21.7754 13.2615H16.8864H16.8869ZM22.3849 7.71145H16.2449V5.87845H22.3849V7.71095V7.71145Z" fill="#111111"/>
</g>
</g>
</g>
</g>
<defs>
<clipPath id="clip0_966_34612">
<rect width="24" height="24" fill="white" transform="translate(0.667969 0.599609)"/>
</clipPath>
<clipPath id="clip1_966_34612">
<rect width="24" height="24" fill="white" transform="translate(0.667969 0.599609)"/>
</clipPath>
<clipPath id="clip2_966_34612">
<rect width="24" height="24" fill="white" transform="translate(0.667969 0.599609)"/>
</clipPath>
</defs>
</svg>
