<svg width="24" height="25" viewBox="0 0 24 25" fill="none" xmlns="http://www.w3.org/2000/svg">
<path d="M12 22.2949C17.5228 22.2949 22 17.8178 22 12.2949C22 6.77207 17.5228 2.29492 12 2.29492C6.47715 2.29492 2 6.77207 2 12.2949C2 17.8178 6.47715 22.2949 12 22.2949Z" fill="#111111"/>
<path d="M22 13.5593C21.0732 13.3855 20.12 13.2949 19.1472 13.2949C13.7948 13.2949 9.03435 16.0374 6 20.2949" stroke="#EAE8E4" stroke-width="1.5" stroke-linejoin="round"/>
<path d="M19 5.29492C15.8705 8.96234 11.1679 11.2949 5.90962 11.2949C4.56437 11.2949 3.25548 11.1422 2 10.8536" stroke="#EAE8E4" stroke-width="1.5" stroke-linejoin="round"/>
<path d="M14.6178 22.2949C14.8684 21.0809 15 19.8236 15 18.5356C15 12.2196 11.8343 6.64137 7 3.29492" stroke="#EAE8E4" stroke-width="1.5" stroke-linejoin="round"/>
</svg>
