<svg width="45" height="12" viewBox="0 0 45 12" fill="none" xmlns="http://www.w3.org/2000/svg">
<rect x="3.70703" y="4.3335" width="2.41432" height="2.41432" transform="rotate(45 3.70703 4.3335)" fill="white"/>
<rect x="8.37305" y="4.3335" width="2.41432" height="2.41432" transform="rotate(45 8.37305 4.3335)" fill="white"/>
<rect x="7.74805" y="3.70703" width="2.41432" height="2.41432" transform="rotate(135 7.74805 3.70703)" fill="white"/>
<rect x="7.74805" y="8.37354" width="2.41432" height="2.41432" transform="rotate(135 7.74805 8.37354)" fill="white"/>
<path d="M14.1579 9.5L15.2117 3.14297H19.4867L19.3245 4.11999H16.1759L15.89 5.85644H18.8126L18.6547 6.81213H15.7322L15.2842 9.5H14.1579ZM19.0131 9.5L19.7597 4.99461H20.7965L20.6727 5.74125H20.6855C20.8107 5.48526 20.9728 5.29042 21.1719 5.15674C21.371 5.02021 21.6171 4.95195 21.91 4.95195C21.9811 4.95195 22.0451 4.95479 22.102 4.96048C22.1617 4.96333 22.2129 4.96617 22.2556 4.96902L22.0977 5.9247C22.0579 5.91901 21.9897 5.9119 21.893 5.90337C21.7991 5.89484 21.6995 5.89057 21.5943 5.89057C21.3383 5.89057 21.1079 5.97875 20.9031 6.15509C20.7012 6.33144 20.5718 6.59596 20.5149 6.94865L20.0882 9.5H19.0131ZM23.7873 9.5896C23.3948 9.5896 23.0691 9.49147 22.8102 9.29521C22.5514 9.09895 22.3694 8.8259 22.2641 8.47605C22.1617 8.12335 22.1489 7.71235 22.2257 7.24304C22.3025 6.78226 22.4504 6.37695 22.6695 6.0271C22.8913 5.6744 23.1644 5.39993 23.4886 5.20367C23.8157 5.00457 24.1712 4.90502 24.5552 4.90502C24.8482 4.90502 25.1042 4.96475 25.3232 5.08421C25.5422 5.20367 25.7029 5.38286 25.8053 5.62178H25.8181L25.9205 4.99461H26.9743L26.2277 9.5H25.1739L25.2848 8.82163H25.272C25.09 9.07762 24.8709 9.26961 24.615 9.3976C24.359 9.5256 24.0831 9.5896 23.7873 9.5896ZM24.1883 8.68937C24.541 8.68937 24.8439 8.55853 25.0971 8.29686C25.3531 8.03234 25.518 7.68106 25.592 7.24304C25.6631 6.80502 25.6147 6.45517 25.4469 6.19349C25.2791 5.92897 25.0203 5.79671 24.6704 5.79671C24.3348 5.79671 24.0433 5.92186 23.7958 6.17216C23.5512 6.42246 23.3905 6.77942 23.3137 7.24304C23.2397 7.70951 23.2838 8.06789 23.446 8.31819C23.6081 8.56564 23.8555 8.68937 24.1883 8.68937ZM27.1876 9.5L27.93 4.99461H28.971L28.8558 5.71991C29.0379 5.44117 29.254 5.23638 29.5043 5.10554C29.7575 4.97186 30.0177 4.90502 30.2851 4.90502C30.5923 4.90502 30.8525 4.98324 31.0659 5.13967C31.282 5.29611 31.42 5.49948 31.4797 5.74978C31.639 5.48526 31.8537 5.27905 32.1239 5.13114C32.397 4.98039 32.6942 4.90502 33.0156 4.90502C33.3086 4.90502 33.5632 4.97044 33.7793 5.10128C33.9955 5.22927 34.1519 5.41699 34.2486 5.66445C34.3482 5.90906 34.3681 6.20771 34.3084 6.56041L33.8263 9.5H32.7468L33.2162 6.64147C33.2645 6.34566 33.2233 6.13518 33.0924 6.01003C32.9644 5.88204 32.7938 5.81804 32.5804 5.81804C32.2903 5.81804 32.0457 5.91048 31.8466 6.09536C31.6475 6.2774 31.5252 6.5021 31.4797 6.76946L31.0275 9.5H29.9822L30.46 6.59454C30.4998 6.34993 30.46 6.15936 30.3406 6.02283C30.2239 5.88631 30.0547 5.81804 29.8328 5.81804C29.574 5.81804 29.3337 5.90906 29.1118 6.0911C28.8928 6.27313 28.7563 6.52485 28.7022 6.84626L28.2628 9.5H27.1876ZM34.7819 9.5L35.5286 4.99461H36.6037L35.8571 9.5H34.7819ZM36.1771 4.29918C36.0007 4.29918 35.8614 4.23945 35.759 4.11999C35.6566 4.00053 35.6196 3.85405 35.648 3.68054C35.6765 3.50988 35.7618 3.36483 35.904 3.24536C36.0462 3.1259 36.2055 3.06617 36.3819 3.06617C36.5554 3.06617 36.6933 3.1259 36.7957 3.24536C36.901 3.36483 36.9394 3.50988 36.9109 3.68054C36.8825 3.85405 36.7971 4.00053 36.6549 4.11999C36.5127 4.23945 36.3534 4.29918 36.1771 4.29918ZM39.9444 4.99461L39.8036 5.86071H38.882L38.1994 9.96078C38.1283 10.3988 37.9704 10.7287 37.7258 10.9506C37.484 11.1725 37.1185 11.2834 36.6293 11.2834H36.0619L36.2112 10.3789H36.544C36.7374 10.3789 36.8768 10.3391 36.9621 10.2594C37.0474 10.1826 37.1057 10.0475 37.137 9.85412L37.8026 5.86071H37.0133L37.1584 4.99461H37.9477L38.0586 4.33758C38.1212 3.95075 38.2861 3.65494 38.5535 3.45015C38.8237 3.24536 39.1807 3.14297 39.6244 3.14297H40.2516L40.1065 4.00906H39.6926C39.5078 4.00906 39.3712 4.04746 39.2831 4.12426C39.1949 4.20105 39.1352 4.33189 39.1039 4.51677L39.0271 4.99461H39.9444ZM39.6756 11.2834L39.8206 10.4088H40.3539C40.499 10.4088 40.6185 10.3689 40.7123 10.2893C40.8062 10.2125 40.9001 10.0859 40.9939 9.90958L41.2286 9.4744L40.2345 4.99461H41.3267L41.7661 7.34117C41.7946 7.50614 41.8216 7.67253 41.8472 7.84035C41.8728 8.00532 41.8984 8.17029 41.924 8.33526C42.0036 8.17029 42.0833 8.00532 42.1629 7.84035C42.2454 7.67253 42.3279 7.50614 42.4104 7.34117L43.6263 4.99461H44.7996L41.9155 10.2424C41.5343 10.9364 41.0224 11.2834 40.3795 11.2834H39.6756Z" fill="white"/>
</svg>
