<svg width="40" height="32" viewBox="0 0 40 32" fill="none" xmlns="http://www.w3.org/2000/svg">
<g clip-path="url(#clip0_832_2423)">
<path d="M16.5007 0V15.5483C14.9452 17.3024 12.8802 19.3793 10.1445 21.8229V0H16.5007Z" fill="white"/>
<path d="M16.5007 20.8821V31.217H10.1445V24.8761C12.2367 23.4616 14.3984 22.0844 16.5007 20.8821Z" fill="white"/>
<path d="M32.8733 0V4.91105C31.9173 5.70578 30.8491 6.3273 29.8116 6.74505C28.7723 7.16109 27.7195 7.38016 26.6972 7.38016C26.653 7.38016 26.6089 7.38016 26.5664 7.37846V0H32.8733Z" fill="white"/>
<path d="M32.8733 7.17297V31.2307L26.5664 31.2171V16.8524C28.5397 16.2411 30.0753 17.4233 31.0376 18.2517C30.1647 16.1419 29.4821 14.2644 29.7199 12.4559C29.9814 10.4606 31.1633 8.65716 32.8733 7.17297Z" fill="white"/>
<path d="M0.000735668 31.2171C0.163758 31.2137 25.2267 10.7425 30.3212 17.2515C27.8283 14.0675 28.9134 9.27699 33.3694 5.56824C28.9151 9.27699 23.785 8.9051 21.2921 5.72107C26.2694 12.0755 -0.160588 31.2205 0.000735668 31.2171Z" fill="white"/>
</g>
<defs>
<clipPath id="clip0_832_2423">
<rect width="33.3686" height="31.2307" fill="white"/>
</clipPath>
</defs>
</svg>
