<svg width="25" height="25" viewBox="0 0 25 25" fill="none" xmlns="http://www.w3.org/2000/svg">
<g clip-path="url(#clip0_966_34630)">
<g clip-path="url(#clip1_966_34630)">
<g clip-path="url(#clip2_966_34630)">
<mask id="mask0_966_34630" style="mask-type:luminance" maskUnits="userSpaceOnUse" x="0" y="0" width="25" height="25">
<path d="M0.332031 0.589844H24.332V24.5898H0.332031V0.589844Z" fill="white"/>
</mask>
<g mask="url(#mask0_966_34630)">
<path d="M12.332 2.75084C15.5385 2.75084 15.918 2.76484 17.179 2.82084C18.3505 2.87284 18.984 3.06934 19.4055 3.23334C19.9635 3.44934 20.3665 3.71184 20.7835 4.12884C21.2055 4.55084 21.4635 4.94884 21.6785 5.50684C21.843 5.92884 22.04 6.56684 22.0915 7.73384C22.1475 8.99884 22.1615 9.37884 22.1615 12.5803C22.1615 15.7868 22.1475 16.1663 22.0915 17.4273C22.04 18.5993 21.843 19.2323 21.679 19.6538C21.4635 20.2118 21.2005 20.6148 20.784 21.0318C20.3615 21.4538 19.963 21.7118 19.4055 21.9273C18.9835 22.0913 18.346 22.2883 17.179 22.3398C15.913 22.3958 15.534 22.4098 12.332 22.4098C9.12553 22.4098 8.74603 22.3958 7.48503 22.3398C6.31353 22.2883 5.68003 22.0913 5.25853 21.9273C4.70103 21.7118 4.29753 21.4493 3.88053 21.0323C3.45853 20.6103 3.20053 20.2118 2.98553 19.6538C2.82103 19.2318 2.62403 18.5943 2.57253 17.4273C2.51653 16.1618 2.50253 15.7823 2.50253 12.5803C2.50253 9.37434 2.51653 8.99434 2.57253 7.73334C2.62403 6.56184 2.82103 5.92884 2.98503 5.50684C3.20053 4.94934 3.46353 4.54634 3.88003 4.12884C4.30253 3.70684 4.70103 3.44884 5.25853 3.23384C5.68053 3.06934 6.31803 2.87284 7.48503 2.82134C8.74603 2.76484 9.12553 2.75084 12.332 2.75084ZM12.332 0.589844C9.07403 0.589844 8.66653 0.603844 7.38703 0.659844C6.11203 0.716344 5.23503 0.922844 4.47603 1.21784C3.68353 1.52734 3.01303 1.93534 2.34753 2.60534C1.67753 3.27134 1.26953 3.94134 0.960031 4.72884C0.665031 5.49284 0.458531 6.36484 0.402531 7.63984C0.346031 8.92434 0.332031 9.33184 0.332031 12.5898C0.332031 15.8478 0.346031 16.2553 0.402031 17.5348C0.458531 18.8098 0.665031 19.6868 0.960031 20.4458C1.26953 21.2383 1.67753 21.9083 2.34753 22.5743C2.94619 23.1844 3.67093 23.6562 4.47103 23.9568C5.23503 24.2523 6.10703 24.4583 7.38203 24.5148C8.66203 24.5708 9.06953 24.5848 12.327 24.5848C15.585 24.5848 15.993 24.5708 17.2725 24.5148C18.5475 24.4583 19.424 24.2523 20.1835 23.9568C20.9836 23.6562 21.7084 23.1844 22.307 22.5743C22.9172 21.9757 23.3893 21.251 23.69 20.4508C23.985 19.6868 24.1915 18.8148 24.2475 17.5398C24.304 16.2598 24.3175 15.8523 24.3175 12.5948C24.3175 9.33684 24.304 8.92884 24.2475 7.64934C24.1915 6.37434 23.985 5.49784 23.69 4.73834C23.3945 3.94134 22.9865 3.27084 22.3165 2.60534C21.7179 1.99531 20.9931 1.52347 20.193 1.22284C19.429 0.927344 18.557 0.720844 17.282 0.664844C15.9975 0.603844 15.59 0.589844 12.332 0.589844Z" fill="#111111"/>
<path d="M12.332 6.42519C8.92897 6.42519 6.16797 9.18619 6.16797 12.5892C6.16797 15.9922 8.92897 18.7532 12.332 18.7532C15.735 18.7532 18.496 15.9922 18.496 12.5892C18.496 9.18619 15.735 6.42519 12.332 6.42519ZM12.332 16.5877C11.2825 16.5711 10.2815 16.1425 9.54522 15.3945C8.80889 14.6464 8.3962 13.6388 8.3962 12.5892C8.3962 11.5395 8.80889 10.532 9.54522 9.78391C10.2815 9.03585 11.2825 8.60729 12.332 8.59069C13.3815 8.60729 14.3824 9.03585 15.1187 9.78391C15.855 10.532 16.2677 11.5395 16.2677 12.5892C16.2677 13.6388 15.855 14.6464 15.1187 15.3945C14.3824 16.1425 13.3815 16.5711 12.332 16.5877ZM20.179 6.18119C20.1791 6.46594 20.0947 6.74432 19.9366 6.98112C19.7784 7.21792 19.5536 7.4025 19.2906 7.51152C19.0275 7.62053 18.738 7.64908 18.4588 7.59355C18.1795 7.53802 17.9229 7.40092 17.7216 7.19957C17.5202 6.99822 17.3831 6.74168 17.3276 6.4624C17.2721 6.18312 17.3006 5.89364 17.4096 5.63058C17.5187 5.36753 17.7032 5.14271 17.94 4.98458C18.1768 4.82644 18.4552 4.74209 18.74 4.74219C19.1213 4.74311 19.4868 4.89502 19.7565 5.16468C20.0261 5.43435 20.178 5.79983 20.179 6.18119Z" fill="#111111"/>
</g>
</g>
</g>
</g>
<defs>
<clipPath id="clip0_966_34630">
<rect width="24" height="24" fill="white" transform="translate(0.332031 0.589844)"/>
</clipPath>
<clipPath id="clip1_966_34630">
<rect width="24" height="24" fill="white" transform="translate(0.332031 0.589844)"/>
</clipPath>
<clipPath id="clip2_966_34630">
<rect width="24" height="24" fill="white" transform="translate(0.332031 0.589844)"/>
</clipPath>
</defs>
</svg>
