<svg width="24" height="25" viewBox="0 0 24 25" fill="none" xmlns="http://www.w3.org/2000/svg">
<g clip-path="url(#clip0_966_34650)">
<g clip-path="url(#clip1_966_34650)">
<g clip-path="url(#clip2_966_34650)">
<mask id="mask0_966_34650" style="mask-type:luminance" maskUnits="userSpaceOnUse" x="0" y="0" width="24" height="25">
<path d="M0 0.199219H24V24.1992H0V0.199219Z" fill="white"/>
</mask>
<g mask="url(#mask0_966_34650)">
<path d="M22.2235 0.199219H1.772C0.792 0.199219 0 0.972719 0 1.92922V22.4642C0 23.4212 0.792 24.1992 1.772 24.1992H22.2235C23.2035 24.1992 24 23.4212 24 22.4692V1.92922C24 0.972219 23.203 0.199219 22.2235 0.199219ZM7.12 20.6507H3.558V9.19472H7.1205V20.6507H7.12ZM5.339 7.63422C5.06781 7.63468 4.79918 7.58168 4.54849 7.47825C4.29779 7.37481 4.06995 7.22298 3.87798 7.03143C3.686 6.83987 3.53367 6.61236 3.4297 6.36189C3.32572 6.11142 3.27213 5.84291 3.272 5.57172C3.27213 5.30053 3.32572 5.03202 3.4297 4.78155C3.53367 4.53108 3.686 4.30357 3.87798 4.11201C4.06995 3.92046 4.29779 3.76862 4.54849 3.66519C4.79918 3.56176 5.06781 3.50876 5.339 3.50922C5.88601 3.50922 6.41061 3.72652 6.79741 4.11331C7.1842 4.5001 7.4015 5.02471 7.4015 5.57172C7.4015 6.11873 7.1842 6.64333 6.79741 7.03013C6.41061 7.41692 5.88601 7.63422 5.339 7.63422ZM20.4515 20.6512H16.894V15.0822C16.894 13.7557 16.8705 12.0447 15.042 12.0447C13.1905 12.0447 12.9095 13.4927 12.9095 14.9882V20.6507H9.356V9.19472H12.769V10.7597H12.8155C13.289 9.85972 14.4515 8.90872 16.181 8.90872C19.786 8.90872 20.4515 11.2807 20.4515 14.3647V20.6512Z" fill="#111111"/>
</g>
</g>
</g>
</g>
<defs>
<clipPath id="clip0_966_34650">
<rect width="24" height="24" fill="white" transform="translate(0 0.199219)"/>
</clipPath>
<clipPath id="clip1_966_34650">
<rect width="24" height="24" fill="white" transform="translate(0 0.199219)"/>
</clipPath>
<clipPath id="clip2_966_34650">
<rect width="24" height="24" fill="white" transform="translate(0 0.199219)"/>
</clipPath>
</defs>
</svg>
