<svg width="51" height="15" viewBox="0 0 51 15" fill="none" xmlns="http://www.w3.org/2000/svg">
<path d="M8.50457 4.96604C8.23651 4.67342 7.90475 4.44176 7.50807 4.27107C7.11139 4.10037 6.64859 4.01502 6.11969 4.01502H3.73V10.5088H6.11969C6.60051 10.5088 7.03806 10.4307 7.43113 10.2759C7.82541 10.1198 8.16199 9.90035 8.44086 9.61748C8.72094 9.3334 8.93491 8.99201 9.08517 8.59331C9.23542 8.1934 9.31115 7.74715 9.31115 7.25335C9.31115 6.80833 9.24384 6.3889 9.10801 5.99509C8.97217 5.60127 8.77143 5.25866 8.50337 4.96604H8.50457ZM7.69318 8.02636C7.61745 8.26167 7.50927 8.46529 7.36863 8.63964C7.22678 8.81399 7.05128 8.94933 6.84092 9.04687C6.63056 9.14441 6.39015 9.19318 6.11969 9.19318H5.20853V5.33303H6.11969C6.38414 5.33303 6.62215 5.37815 6.83251 5.47081C7.04287 5.56225 7.22077 5.69393 7.36502 5.86463C7.50927 6.03532 7.61866 6.23772 7.69439 6.47303C7.76891 6.70835 7.80738 6.96805 7.80738 7.25457C7.80738 7.5411 7.77012 7.79226 7.69439 8.02758L7.69318 8.02636Z" fill="white"/>
<path d="M13.9295 7.18016C14.236 7.03994 14.4656 6.83267 14.6194 6.55834C14.7733 6.28401 14.849 5.99139 14.849 5.68048C14.849 5.4732 14.8142 5.27081 14.7457 5.07207C14.6759 4.87455 14.5786 4.69654 14.4524 4.5417C14.3261 4.38563 14.1723 4.26005 13.992 4.16251C13.8117 4.06497 13.6097 4.0162 13.3873 4.0162H9.82563V10.5099H12.9462C13.2407 10.5099 13.5208 10.4746 13.7852 10.4051C14.0497 10.3356 14.2817 10.2307 14.48 10.0942C14.6783 9.95761 14.8346 9.78448 14.9488 9.5772C15.063 9.36993 15.1207 9.12608 15.1207 8.84565C15.1207 8.40672 15.0137 8.04704 14.8009 7.76662C14.587 7.48619 14.2973 7.29111 13.9307 7.18137L13.9295 7.18016ZM11.3054 5.29641H12.8115C12.9678 5.29641 13.1012 5.35494 13.213 5.47077C13.3236 5.58659 13.3801 5.75119 13.3801 5.96456C13.3801 6.19622 13.3164 6.36691 13.1902 6.47665C13.064 6.58638 12.9197 6.64125 12.7575 6.64125H11.3054V5.29641ZM13.4234 9.04561C13.2972 9.17363 13.1373 9.23825 12.945 9.23825H11.3042V7.82026H13.0087C13.183 7.82026 13.3272 7.89098 13.4414 8.03119C13.5556 8.17141 13.6133 8.3421 13.6133 8.54328C13.6133 8.74445 13.5496 8.91881 13.4234 9.04683V9.04561Z" fill="white"/>
<path d="M15.6328 10.51H17.1125V7.94833H19.4745V6.59496H17.1125V5.33303H19.9794V4.01502H15.6328V10.51Z" fill="white"/>
<path d="M24.4354 6.60345H20.4434V7.94828H24.4354V6.60345Z" fill="white"/>
<path d="M29.1692 4.01502L27.7712 6.25601L26.3732 4.01502H20.4434V5.33303H25.6555L26.9862 7.30822L25.7229 9.19196H20.4434V10.51H26.4453L27.7712 8.36043L29.097 10.51H30.6934L28.5465 7.30822L30.7655 4.01502H29.1692Z" fill="white"/>
<path d="M0 14.9212H34.5375V0H0V14.9212ZM0.949626 0.963208H33.5891V13.9592H0.949626V0.963208Z" fill="white"/>
<path d="M36.9621 2.78476C37.0787 2.73721 37.1773 2.67015 37.259 2.5848C37.3407 2.49823 37.4044 2.3946 37.4477 2.27389C37.491 2.15196 37.5138 2.01663 37.5138 1.86666C37.5138 1.73132 37.4946 1.6033 37.4549 1.48382C37.4153 1.36433 37.3564 1.25947 37.2782 1.17047C37.2001 1.08146 37.1015 1.01075 36.9837 0.959537C36.8659 0.907109 36.7289 0.881505 36.5738 0.881505H35.8995V2.85547H36.5738C36.7169 2.85547 36.8455 2.83231 36.9621 2.78476ZM36.1459 1.10341H36.5738C36.6832 1.10341 36.7818 1.12292 36.8671 1.16071C36.9525 1.19851 37.0258 1.25094 37.0847 1.318C37.1436 1.38506 37.1893 1.46553 37.2193 1.55819C37.2494 1.65207 37.265 1.75449 37.265 1.86544C37.265 1.97639 37.2494 2.07637 37.2193 2.17025C37.1893 2.26414 37.1448 2.34461 37.0883 2.4141C37.0306 2.48238 36.9585 2.53603 36.8719 2.57504C36.7854 2.61406 36.6856 2.63357 36.575 2.63357H36.1471V1.10463L36.1459 1.10341Z" fill="white"/>
<path d="M38.1088 0.88029H37.8624V2.85426H38.1088V0.88029Z" fill="white"/>
<path d="M39.5429 2.57384C39.466 2.62383 39.3578 2.64943 39.2196 2.64943C39.145 2.64943 39.0729 2.64211 39.0044 2.62626C38.9359 2.61041 38.8722 2.58969 38.8121 2.5653C38.7532 2.5397 38.6991 2.51165 38.6534 2.47995C38.6065 2.44825 38.5692 2.41655 38.5392 2.38485L38.4214 2.59578C38.5308 2.68723 38.6534 2.75551 38.7868 2.80306C38.9215 2.85061 39.0633 2.87377 39.2136 2.87377C39.3145 2.87377 39.4071 2.8628 39.4936 2.84207C39.579 2.82134 39.6535 2.78721 39.7172 2.74209C39.7797 2.69698 39.8302 2.63968 39.8663 2.57018C39.9023 2.50068 39.9216 2.41899 39.9216 2.32389C39.9216 2.23488 39.9059 2.15929 39.8759 2.09833C39.8458 2.03737 39.8014 1.98494 39.7449 1.94226C39.6872 1.89959 39.6174 1.86423 39.5369 1.83497C39.4552 1.80571 39.365 1.78132 39.264 1.75816C39.1763 1.73743 39.1006 1.71792 39.0368 1.69963C38.9731 1.68134 38.9191 1.6594 38.877 1.63379C38.8337 1.60819 38.8024 1.57893 38.782 1.54357C38.7616 1.50821 38.752 1.46432 38.752 1.41067C38.752 1.31069 38.7868 1.23144 38.8577 1.17414C38.9287 1.11683 39.0393 1.08757 39.1907 1.08757C39.2496 1.08757 39.3049 1.09367 39.359 1.10586C39.4131 1.11805 39.4624 1.1339 39.5081 1.15341C39.5537 1.17292 39.5946 1.19486 39.6319 1.21925C39.6679 1.24363 39.698 1.26802 39.7196 1.29484L39.835 1.09245C39.7533 1.02417 39.6583 0.969302 39.5525 0.927848C39.4468 0.887613 39.3277 0.866885 39.1955 0.866885C39.0945 0.866885 39.002 0.879078 38.9154 0.904682C38.8301 0.930286 38.7556 0.966864 38.6931 1.01685C38.6306 1.06684 38.5825 1.12781 38.5476 1.20096C38.5127 1.2729 38.4959 1.35702 38.4959 1.45091C38.4959 1.52894 38.5091 1.596 38.5344 1.65086C38.5596 1.70695 38.5981 1.75328 38.6486 1.7923C38.6991 1.83131 38.7616 1.86423 38.8361 1.89228C38.9106 1.92032 38.9984 1.94592 39.097 1.97031C39.1859 1.99225 39.2664 2.0142 39.3374 2.03615C39.4083 2.05687 39.4672 2.08248 39.5141 2.1093C39.5621 2.13734 39.5982 2.17026 39.6222 2.20806C39.6475 2.24586 39.6595 2.29341 39.6595 2.34828C39.6595 2.44825 39.621 2.52385 39.5441 2.57384H39.5429Z" fill="white"/>
<path d="M40.7293 2.85548H40.9769V1.10341H41.6489V0.88029H40.0586V1.10341H40.7293V2.85548Z" fill="white"/>
<path d="M42.1742 0.88029H41.9278V2.85426H42.1742V0.88029Z" fill="white"/>
<path d="M43.9737 2.63235H42.887V0.88029H42.6406V2.85548H43.9737V2.63235Z" fill="white"/>
<path d="M45.5748 2.63235H44.4882V0.88029H44.2418V2.85548H45.5748V2.63235Z" fill="white"/>
<path d="M47.164 2.63235H46.0893V1.95201H47.0029V1.7423H46.0893V1.10341H47.1399V0.88029H45.8429V2.85548H47.164V2.63235Z" fill="white"/>
<path d="M48.5643 2.78476C48.6809 2.73721 48.7795 2.67015 48.8612 2.5848C48.943 2.49823 49.0067 2.3946 49.05 2.27389C49.0932 2.15196 49.1161 2.01663 49.1161 1.86666C49.1161 1.73132 49.0968 1.6033 49.0572 1.48382C49.0175 1.36433 48.9586 1.25947 48.8805 1.17047C48.8023 1.08146 48.7038 1.01075 48.586 0.959537C48.4682 0.907109 48.3311 0.881505 48.1761 0.881505H47.5017V2.85547H48.1761C48.3191 2.85547 48.4477 2.83231 48.5643 2.78476ZM47.7481 1.10341H48.1761C48.2855 1.10341 48.384 1.12292 48.4694 1.16071C48.5547 1.19851 48.628 1.25094 48.6869 1.318C48.7458 1.38506 48.7915 1.46553 48.8216 1.55819C48.8516 1.65207 48.8673 1.75449 48.8673 1.86544C48.8673 1.97639 48.8516 2.07637 48.8216 2.17025C48.7915 2.26414 48.747 2.34461 48.6906 2.4141C48.6329 2.48238 48.5607 2.53603 48.4742 2.57504C48.3876 2.61406 48.2879 2.63357 48.1773 2.63357H47.7493V1.10463L47.7481 1.10341Z" fill="white"/>
<path d="M37.3936 6.03773C37.3936 5.9158 37.3612 5.80973 37.2963 5.7195C37.2313 5.62928 37.1436 5.56831 37.0318 5.53417C37.1208 5.49394 37.1905 5.43176 37.2386 5.34763C37.2866 5.26472 37.3107 5.17328 37.3107 5.07452C37.3107 5.01355 37.2999 4.95259 37.2794 4.89285C37.259 4.83311 37.2289 4.77824 37.1905 4.73191C37.152 4.68436 37.1051 4.64656 37.051 4.61608C36.9957 4.58682 36.9344 4.57219 36.8671 4.57219H35.8995V6.54615H36.8238C36.902 6.54615 36.9765 6.53396 37.045 6.50958C37.1135 6.48519 37.1737 6.45105 37.2265 6.40716C37.2782 6.36327 37.3203 6.3084 37.3504 6.24622C37.3804 6.18282 37.396 6.11332 37.396 6.03773H37.3936ZM36.1459 4.78921H36.7818C36.8214 4.78921 36.8599 4.79775 36.896 4.81482C36.932 4.83189 36.9621 4.85505 36.9861 4.88431C37.0114 4.91358 37.0306 4.94893 37.045 4.99039C37.0595 5.03062 37.0667 5.07452 37.0667 5.12085C37.0667 5.16718 37.0595 5.20742 37.0438 5.24765C37.0282 5.28789 37.0078 5.32203 36.9813 5.35251C36.9549 5.38177 36.9236 5.40615 36.8864 5.42322C36.8503 5.44029 36.8094 5.45005 36.7661 5.45005H36.1471V4.79043L36.1459 4.78921ZM37.1196 6.12064C37.1027 6.16087 37.0799 6.19745 37.051 6.22793C37.0222 6.25841 36.9885 6.2828 36.9501 6.30108C36.9116 6.31937 36.8695 6.32913 36.8238 6.32913H36.1471V5.65H36.8431C36.8864 5.65 36.9272 5.65976 36.9633 5.67805C36.9994 5.69634 37.0318 5.72194 37.0583 5.75364C37.0847 5.78534 37.1063 5.82192 37.1208 5.86337C37.1364 5.90483 37.1436 5.94872 37.1436 5.99261C37.1436 6.03651 37.1352 6.07918 37.1184 6.12064H37.1196Z" fill="white"/>
<path d="M37.7554 6.54615L37.9826 5.96823H38.8L39.0308 6.54615H39.2941L38.4995 4.57219H38.2915L37.4934 6.54615H37.7566H37.7554ZM38.3937 4.86115L38.7447 5.77315H38.0319L38.3937 4.86115Z" fill="white"/>
<path d="M40.7606 6.54615H41.0407L40.5695 5.79022C40.632 5.77315 40.6873 5.74633 40.7377 5.70975C40.7882 5.67317 40.8315 5.62806 40.8664 5.57685C40.9024 5.52442 40.9289 5.46712 40.9481 5.4025C40.9673 5.33909 40.977 5.27204 40.977 5.20376C40.977 5.12573 40.9625 5.04891 40.9337 4.97454C40.9048 4.89895 40.864 4.83189 40.8111 4.77092C40.7594 4.71118 40.6969 4.66241 40.6247 4.62583C40.5526 4.58926 40.4733 4.57219 40.3879 4.57219H39.5549V6.54615H39.8013V5.83655H40.317L40.7606 6.54615ZM39.8001 4.79409H40.3735C40.4216 4.79409 40.4661 4.80506 40.5094 4.82579C40.5526 4.84652 40.5899 4.877 40.6223 4.9148C40.6548 4.95259 40.68 4.99649 40.6993 5.04526C40.7185 5.09403 40.7281 5.14645 40.7281 5.20254C40.7281 5.25862 40.7197 5.30861 40.7029 5.3586C40.6861 5.40859 40.6632 5.45249 40.6344 5.49028C40.6055 5.52808 40.5695 5.55856 40.5286 5.58051C40.4877 5.60245 40.4408 5.61343 40.3903 5.61343H39.8013V4.79287L39.8001 4.79409Z" fill="white"/>
<path d="M41.3544 6.54615H41.6008V5.83655H42.1165L42.5601 6.54615H42.8402L42.369 5.79022C42.4315 5.77315 42.4868 5.74633 42.5372 5.70975C42.5877 5.67317 42.631 5.62806 42.6659 5.57685C42.7019 5.52442 42.7284 5.46712 42.7476 5.4025C42.7668 5.33909 42.7764 5.27204 42.7764 5.20376C42.7764 5.12573 42.762 5.04891 42.7332 4.97454C42.7043 4.89895 42.6635 4.83189 42.6106 4.77092C42.5589 4.71118 42.4964 4.66241 42.4242 4.62583C42.3521 4.58926 42.2728 4.57219 42.1874 4.57219H41.3544V6.54615ZM41.602 4.79409H42.1754C42.2235 4.79409 42.268 4.80506 42.3113 4.82579C42.3545 4.84652 42.3918 4.877 42.4242 4.9148C42.4567 4.95259 42.4819 4.99649 42.5012 5.04526C42.5204 5.09403 42.53 5.14645 42.53 5.20254C42.53 5.25862 42.5216 5.30861 42.5048 5.3586C42.488 5.40859 42.4651 5.45249 42.4363 5.49028C42.4074 5.52808 42.3714 5.55856 42.3305 5.58051C42.2896 5.60245 42.2427 5.61343 42.1923 5.61343H41.6032V4.79287L41.602 4.79409Z" fill="white"/>
<path d="M44.4774 6.32425H43.4027V5.64269H44.3163V5.4342H43.4027V4.79409H44.4533V4.57219H43.1563V6.54615H44.4774V6.32425Z" fill="white"/>
<path d="M46.147 6.32425H45.0616V4.57219H44.8151V6.54615H46.147V6.32425Z" fill="white"/>
<path d="M47.3346 6.53397C47.42 6.51324 47.4945 6.47911 47.5582 6.43399C47.6207 6.38888 47.6712 6.33158 47.7073 6.26208C47.7433 6.19258 47.7626 6.11089 47.7626 6.01579C47.7626 5.92679 47.7469 5.85119 47.7169 5.79023C47.6868 5.72927 47.6424 5.67684 47.5859 5.63416C47.5282 5.59149 47.4585 5.55613 47.3779 5.52687C47.2962 5.49761 47.206 5.47322 47.1051 5.45006C47.0173 5.42933 46.9416 5.40982 46.8779 5.39153C46.8142 5.37325 46.7601 5.3513 46.718 5.32569C46.6747 5.30009 46.6435 5.27083 46.623 5.23547C46.6026 5.20011 46.593 5.15622 46.593 5.10257C46.593 5.00259 46.6278 4.92334 46.6988 4.86604C46.7697 4.80873 46.8803 4.77947 47.0317 4.77947C47.0906 4.77947 47.1459 4.78557 47.2 4.79776C47.2541 4.80995 47.3034 4.8258 47.3491 4.84531C47.3947 4.86482 47.4356 4.88676 47.4729 4.91115C47.5089 4.93553 47.539 4.95992 47.5606 4.98674L47.676 4.78313C47.5943 4.71485 47.4993 4.65998 47.3935 4.61853C47.2878 4.57829 47.1688 4.55757 47.0365 4.55757C46.9356 4.55757 46.843 4.56976 46.7565 4.59536C46.6711 4.62097 46.5966 4.65754 46.5341 4.70753C46.4716 4.75752 46.4235 4.81849 46.3886 4.89164C46.3538 4.96358 46.3369 5.0477 46.3369 5.14159C46.3369 5.21962 46.3502 5.28668 46.3754 5.34154C46.4006 5.39763 46.4391 5.44396 46.4896 5.48298C46.5401 5.52199 46.6026 5.55491 46.6771 5.58296C46.7516 5.611 46.8394 5.6366 46.938 5.66099C47.0269 5.68293 47.1075 5.70488 47.1784 5.72683C47.2493 5.74877 47.3082 5.77316 47.3551 5.79998C47.4032 5.82803 47.4392 5.86095 47.4633 5.89874C47.4885 5.93654 47.5005 5.98409 47.5005 6.03896C47.5005 6.13893 47.4621 6.21453 47.3851 6.26452C47.3082 6.31451 47.2 6.34011 47.0618 6.34011C46.9873 6.34011 46.9151 6.3328 46.8466 6.31695C46.7781 6.3011 46.7144 6.28037 46.6543 6.25598C46.5954 6.23038 46.5413 6.20234 46.4956 6.17064C46.4487 6.13893 46.4115 6.10723 46.3814 6.07553L46.2636 6.28646C46.373 6.37791 46.4956 6.44619 46.629 6.49374C46.7637 6.54129 46.9055 6.56445 47.0558 6.56445C47.1567 6.56445 47.2493 6.55348 47.3358 6.53275L47.3346 6.53397Z" fill="white"/>
<path d="M36.1459 9.35288H37.021V9.14439H36.1459V8.48599H37.1845V8.26287H35.8995V10.2381H36.1459V9.35288Z" fill="white"/>
<path d="M37.7434 8.26287H37.497V10.2368H37.7434V8.26287Z" fill="white"/>
<path d="M39.6091 9.80156L38.4022 8.26287H38.2099V10.2381H38.4575V8.72984L39.6475 10.2381H39.8555V8.26653H39.6091V9.80156Z" fill="white"/>
<path d="M40.6067 9.65891H41.4241L41.6549 10.2368H41.9182L41.1236 8.26287H40.9156L40.1175 10.2368H40.3807L40.6079 9.65891H40.6067ZM41.0178 8.55183L41.3688 9.46383H40.656L41.0178 8.55183Z" fill="white"/>
<path d="M42.3689 8.26287H42.1778V10.2381H42.4242V8.72984L43.6143 10.2381H43.8222V8.26653H43.5758V9.80156L42.3689 8.26287Z" fill="white"/>
<path d="M44.4185 9.93323C44.5002 10.0283 44.5964 10.1064 44.7082 10.1649C44.82 10.2246 44.9426 10.2539 45.076 10.2539C45.1505 10.2539 45.2274 10.2441 45.3068 10.2234C45.3849 10.2027 45.4594 10.1734 45.5304 10.1344C45.6013 10.0954 45.6638 10.0478 45.7191 9.99176C45.7744 9.93567 45.8177 9.86983 45.8489 9.79546L45.6434 9.68085C45.6157 9.74181 45.5808 9.79424 45.5376 9.83813C45.4943 9.88203 45.4486 9.91738 45.3993 9.94665C45.3501 9.97591 45.2984 9.99664 45.2443 10.0088C45.1902 10.0222 45.1373 10.0283 45.0868 10.0283C44.9894 10.0283 44.9005 10.0076 44.8175 9.96494C44.7358 9.92226 44.6637 9.86496 44.6036 9.79302C44.5435 9.72108 44.4966 9.63818 44.4629 9.54429C44.4293 9.45041 44.4125 9.35165 44.4125 9.24802C44.4125 9.15535 44.4269 9.06269 44.4545 8.97125C44.4834 8.8798 44.5254 8.79689 44.5819 8.72374C44.6384 8.65058 44.7082 8.59084 44.7911 8.54573C44.874 8.50061 44.9702 8.47745 45.0772 8.47745C45.1265 8.47745 45.177 8.48355 45.2274 8.49452C45.2791 8.50549 45.3284 8.52378 45.3765 8.5506C45.4246 8.57621 45.4703 8.61035 45.5111 8.65302C45.552 8.6957 45.5869 8.74812 45.6169 8.81152L45.8116 8.6835C45.7515 8.55548 45.659 8.45184 45.5352 8.37259C45.4114 8.29334 45.2623 8.25311 45.088 8.25311C44.9414 8.25311 44.8115 8.28237 44.6961 8.33967C44.5807 8.39698 44.4834 8.47257 44.404 8.56646C44.3247 8.66034 44.2646 8.76519 44.2225 8.88346C44.1817 9.00173 44.1612 9.11999 44.1612 9.23826C44.1612 9.36384 44.1841 9.48821 44.2285 9.60891C44.273 9.73084 44.3367 9.83935 44.4173 9.93445L44.4185 9.93323Z" fill="white"/>
<path d="M46.4042 8.26287H46.1578V10.2368H46.4042V8.26287Z" fill="white"/>
<path d="M47.9729 9.65891L48.2037 10.2368H48.467L47.6724 8.26287H47.4645L46.6663 10.2368H46.9296L47.1567 9.65891H47.9741H47.9729ZM47.5679 8.55183L47.9189 9.46383H47.206L47.5679 8.55183Z" fill="white"/>
<path d="M50.0597 10.0149H48.9743V8.26287H48.7266V10.2381H50.0597V10.0149Z" fill="white"/>
<path d="M36.1459 13.0265H37.0583V12.818H36.1459V12.1779H37.1965V11.956H35.8995V13.9299H37.2205V13.708H36.1459V13.0265Z" fill="white"/>
<path d="M38.7916 11.956L38.199 12.779L37.6076 11.956H37.3335L38.0656 12.957L37.3552 13.9299H37.6293L38.199 13.135L38.77 13.9299H39.0417L38.3313 12.957L39.0633 11.956H38.7916Z" fill="white"/>
<path d="M40.4601 13.5312C40.4168 13.5751 40.3711 13.6105 40.3218 13.6398C40.2725 13.669 40.2209 13.6897 40.1668 13.7019C40.1127 13.7154 40.0598 13.7214 40.0093 13.7214C39.9119 13.7214 39.823 13.7007 39.74 13.658C39.6583 13.6154 39.5862 13.5581 39.5261 13.4861C39.466 13.4142 39.4191 13.3313 39.3854 13.2374C39.3518 13.1435 39.3349 13.0448 39.3349 12.9411C39.3349 12.8485 39.3494 12.7558 39.377 12.6644C39.4059 12.5729 39.4479 12.49 39.5044 12.4168C39.5609 12.3437 39.6306 12.2839 39.7136 12.2388C39.7965 12.1937 39.8927 12.1706 39.9997 12.1706C40.049 12.1706 40.0995 12.1767 40.1499 12.1876C40.2016 12.1986 40.2509 12.2169 40.299 12.2437C40.3471 12.2693 40.3927 12.3035 40.4336 12.3461C40.4745 12.3888 40.5094 12.4412 40.5394 12.5046L40.7341 12.3766C40.674 12.2486 40.5815 12.145 40.4577 12.0657C40.3339 11.9865 40.1848 11.9462 40.0105 11.9462C39.8638 11.9462 39.734 11.9755 39.6186 12.0328C39.5032 12.0901 39.4059 12.1657 39.3265 12.2596C39.2472 12.3534 39.1871 12.4583 39.145 12.5766C39.1041 12.6948 39.0837 12.8131 39.0837 12.9314C39.0837 13.057 39.1066 13.1813 39.151 13.302C39.1955 13.4239 39.2592 13.5325 39.3397 13.6276C39.4215 13.7227 39.5177 13.8007 39.6294 13.8592C39.7412 13.919 39.8638 13.9482 39.9973 13.9482C40.0718 13.9482 40.1487 13.9385 40.2281 13.9177C40.3062 13.897 40.3807 13.8678 40.4517 13.8287C40.5226 13.7897 40.5851 13.7422 40.6404 13.6861C40.6957 13.63 40.7389 13.5642 40.7702 13.4898L40.5646 13.3752C40.537 13.4361 40.5021 13.4886 40.4589 13.5325L40.4601 13.5312Z" fill="white"/>
<path d="M42.399 12.8095H41.328V11.956H41.0804V13.9299H41.328V13.0326H42.399V13.9299H42.6466V11.956H42.399V12.8095Z" fill="white"/>
<path d="M43.7044 11.956L42.9063 13.9299H43.1695L43.3967 13.352H44.2141L44.4449 13.9299H44.7082L43.9136 11.956H43.7044ZM43.4472 13.1569L43.809 12.2449L44.16 13.1569H43.4472Z" fill="white"/>
<path d="M46.367 13.4935L45.1601 11.956H44.969V13.9299H45.2154V12.423L46.4054 13.9299H46.6134V11.9584H46.367V13.4935Z" fill="white"/>
<path d="M48.033 13.135H48.4525V13.4069C48.2831 13.6141 48.0919 13.7178 47.8792 13.7178C47.7818 13.7178 47.6929 13.697 47.6111 13.6568C47.5294 13.6166 47.4572 13.5605 47.3971 13.4885C47.337 13.4166 47.289 13.3349 47.2541 13.241C47.2192 13.1472 47.2024 13.0472 47.2024 12.9423C47.2024 12.8423 47.218 12.7448 47.2493 12.6521C47.2805 12.5583 47.3238 12.4766 47.3803 12.4046C47.4368 12.3327 47.5053 12.2754 47.5859 12.2327C47.6664 12.1888 47.7554 12.1669 47.8539 12.1669C47.9741 12.1669 48.0835 12.1949 48.1797 12.2498C48.2771 12.3059 48.354 12.3912 48.4129 12.5058L48.6016 12.3729C48.5379 12.2449 48.4453 12.1413 48.3227 12.062C48.2013 11.9828 48.0463 11.9425 47.8575 11.9425C47.7277 11.9425 47.6075 11.9694 47.4957 12.023C47.3839 12.0767 47.2878 12.1498 47.2072 12.2413C47.1267 12.3327 47.0642 12.4388 47.0185 12.5583C46.9728 12.6777 46.95 12.8045 46.95 12.9374C46.95 13.0703 46.9728 13.1898 47.0197 13.3105C47.0666 13.4312 47.1303 13.5385 47.2108 13.6312C47.2914 13.7251 47.3863 13.8007 47.4969 13.858C47.6075 13.9153 47.7277 13.9445 47.8575 13.9445C48.0799 13.9445 48.2783 13.8507 48.4501 13.6641V13.9311H48.6581V12.9472H48.0306V13.1362L48.033 13.135Z" fill="white"/>
<path d="M49.2844 13.708V13.0265H50.1967V12.818H49.2844V12.1779H50.3338V11.956H49.0368V13.9299H50.359V13.708H49.2844Z" fill="white"/>
</svg>
