<svg width="24" height="25" viewBox="0 0 24 25" fill="none" xmlns="http://www.w3.org/2000/svg">
<mask id="mask0_966_34698" style="mask-type:alpha" maskUnits="userSpaceOnUse" x="0" y="0" width="24" height="25">
<rect y="0.798828" width="24" height="24" fill="#D9D9D9"/>
</mask>
<g mask="url(#mask0_966_34698)">
<path d="M4 20.7988C3.45 20.7988 2.97917 20.603 2.5875 20.2113C2.19583 19.8197 2 19.3488 2 18.7988V6.79883C2 6.24883 2.19583 5.77799 2.5875 5.38633C2.97917 4.99466 3.45 4.79883 4 4.79883H20C20.55 4.79883 21.0208 4.99466 21.4125 5.38633C21.8042 5.77799 22 6.24883 22 6.79883V18.7988C22 19.3488 21.8042 19.8197 21.4125 20.2113C21.0208 20.603 20.55 20.7988 20 20.7988H4ZM12 13.7988L20 8.79883V6.79883L12 11.7988L4 6.79883V8.79883L12 13.7988Z" fill="#1C1B1F"/>
</g>
</svg>
