<svg width="25" height="25" viewBox="0 0 25 25" fill="none" xmlns="http://www.w3.org/2000/svg">
<path d="M19.8477 5.41005C18.9307 4.48416 17.8387 3.75002 16.6352 3.25042C15.4317 2.75081 14.1407 2.49574 12.8377 2.50005C7.37766 2.50005 2.92766 6.95005 2.92766 12.4101C2.92766 14.1601 3.38766 15.8601 4.24766 17.3601L2.84766 22.5001L8.09766 21.1201C9.54766 21.9101 11.1777 22.3301 12.8377 22.3301C18.2977 22.3301 22.7477 17.8801 22.7477 12.4201C22.7477 9.77005 21.7177 7.28005 19.8477 5.41005ZM12.8377 20.6501C11.3577 20.6501 9.90766 20.2501 8.63766 19.5001L8.33766 19.3201L5.21766 20.1401L6.04766 17.1001L5.84766 16.7901C5.0252 15.4771 4.58858 13.9593 4.58766 12.4101C4.58766 7.87005 8.28766 4.17005 12.8277 4.17005C15.0277 4.17005 17.0977 5.03005 18.6477 6.59005C19.4153 7.35392 20.0236 8.2626 20.4373 9.26338C20.851 10.2642 21.0619 11.3371 21.0577 12.4201C21.0777 16.9601 17.3777 20.6501 12.8377 20.6501ZM17.3577 14.4901C17.1077 14.3701 15.8877 13.7701 15.6677 13.6801C15.4377 13.6001 15.2777 13.5601 15.1077 13.8001C14.9377 14.0501 14.4677 14.6101 14.3277 14.7701C14.1877 14.9401 14.0377 14.9601 13.7877 14.8301C13.5377 14.7101 12.7377 14.4401 11.7977 13.6001C11.0577 12.9401 10.5677 12.1301 10.4177 11.8801C10.2777 11.6301 10.3977 11.5001 10.5277 11.3701C10.6377 11.2601 10.7777 11.0801 10.8977 10.9401C11.0177 10.8001 11.0677 10.6901 11.1477 10.5301C11.2277 10.3601 11.1877 10.2201 11.1277 10.1001C11.0677 9.98005 10.5677 8.76005 10.3677 8.26005C10.1677 7.78005 9.95766 7.84005 9.80766 7.83005H9.32766C9.15766 7.83005 8.89766 7.89005 8.66766 8.14005C8.44766 8.39005 7.80766 8.99005 7.80766 10.2101C7.80766 11.4301 8.69766 12.6101 8.81766 12.7701C8.93766 12.9401 10.5677 15.4401 13.0477 16.5101C13.6377 16.7701 14.0977 16.9201 14.4577 17.0301C15.0477 17.2201 15.5877 17.1901 16.0177 17.1301C16.4977 17.0601 17.4877 16.5301 17.6877 15.9501C17.8977 15.3701 17.8977 14.8801 17.8277 14.7701C17.7577 14.6601 17.6077 14.6101 17.3577 14.4901Z" fill="#EC7100"/>
</svg>
