<svg width="25" height="25" viewBox="0 0 25 25" fill="none" xmlns="http://www.w3.org/2000/svg">
<g clip-path="url(#clip0_966_34669)">
<g clip-path="url(#clip1_966_34669)">
<g clip-path="url(#clip2_966_34669)">
<path d="M24.429 7.39981C24.429 7.39981 24.1945 5.74481 23.4725 5.01881C22.5585 4.06231 21.5365 4.05781 21.068 4.00131C17.712 3.75781 12.673 3.75781 12.673 3.75781H12.663C12.663 3.75781 7.62447 3.75781 4.26797 4.00131C3.79897 4.05781 2.77747 4.06231 1.86297 5.01881C1.14197 5.74481 0.911969 7.39981 0.911969 7.39981C0.911969 7.39981 0.667969 9.34481 0.667969 11.2858V13.1043C0.667969 15.0453 0.906969 16.9903 0.906969 16.9903C0.906969 16.9903 1.14147 18.6453 1.85847 19.3718C2.77247 20.3278 3.97247 20.2953 4.50697 20.3983C6.42897 20.5813 12.668 20.6373 12.668 20.6373C12.668 20.6373 17.7115 20.6278 21.068 20.3888C21.537 20.3328 22.5585 20.3278 23.473 19.3718C24.1945 18.6453 24.429 16.9903 24.429 16.9903C24.429 16.9903 24.668 15.0503 24.668 13.1048V11.2863C24.668 9.34581 24.429 7.40031 24.429 7.40031V7.39981ZM10.188 15.3123V8.56731L16.6705 11.9513L10.188 15.3123Z" fill="#111111"/>
</g>
</g>
</g>
<defs>
<clipPath id="clip0_966_34669">
<rect width="24" height="24" fill="white" transform="translate(0.667969 0.199219)"/>
</clipPath>
<clipPath id="clip1_966_34669">
<rect width="24" height="24" fill="white" transform="translate(0.667969 0.199219)"/>
</clipPath>
<clipPath id="clip2_966_34669">
<rect width="24" height="24" fill="white" transform="translate(0.667969 0.199219)"/>
</clipPath>
</defs>
</svg>
